<svg xmlns="http://www.w3.org/2000/svg" xmlns:xlink="http://www.w3.org/1999/xlink" width="1081" zoomAndPan="magnify" viewBox="0 0 810.75 809.999993" height="1080" preserveAspectRatio="xMidYMid meet" version="1.0"><defs><clipPath id="861e0fb99d"><path d="M 0 0.125 L 810.5 0.125 L 810.5 809.875 L 0 809.875 Z M 0 0.125 " clip-rule="nonzero"/></clipPath><clipPath id="410dcf5043"><path d="M 0 0.125 L 810.5 0.125 L 810.5 809.875 L 0 809.875 Z M 0 0.125 " clip-rule="nonzero"/></clipPath><clipPath id="3db0720004"><rect x="0" width="811" y="0" height="810"/></clipPath></defs><g clip-path="url(#861e0fb99d)"><path fill="#ffffff" d="M 0 0.125 L 810.5 0.125 L 810.5 809.875 L 0 809.875 Z M 0 0.125 " fill-opacity="1" fill-rule="nonzero"/><path fill="#ffffff" d="M 0 0.125 L 810.5 0.125 L 810.5 809.875 L 0 809.875 Z M 0 0.125 " fill-opacity="1" fill-rule="nonzero"/><g transform="matrix(1, 0, 0, 1, 0, 0.00000000000007494)"><g clip-path="url(#3db0720004)"><g clip-path="url(#410dcf5043)"><rect x="-178.365" width="1167.48" fill="#535bf2" height="1166.39999" y="-178.199998" fill-opacity="1"/></g></g></g></g><path fill="#f5f9ff" d="M 412.109375 562.640625 C 199.035156 562.640625 87.546875 490.039062 87.546875 418.308594 C 87.546875 364.582031 143.230469 319.398438 240.316406 294.363281 C 241.265625 294.117188 242.222656 293.917969 243.191406 293.769531 C 244.160156 293.617188 245.132812 293.515625 246.113281 293.460938 C 247.089844 293.40625 248.070312 293.398438 249.046875 293.4375 C 250.027344 293.480469 251 293.570312 251.972656 293.707031 C 252.941406 293.84375 253.902344 294.027344 254.855469 294.257812 C 255.808594 294.488281 256.746094 294.765625 257.671875 295.089844 C 258.597656 295.414062 259.503906 295.78125 260.390625 296.195312 C 261.28125 296.605469 262.148438 297.0625 262.992188 297.558594 C 263.835938 298.058594 264.652344 298.59375 265.445312 299.171875 C 266.234375 299.75 266.996094 300.367188 267.726562 301.019531 C 268.457031 301.671875 269.15625 302.359375 269.820312 303.082031 C 270.480469 303.800781 271.109375 304.554688 271.699219 305.335938 C 272.289062 306.121094 272.835938 306.929688 273.347656 307.765625 C 273.855469 308.605469 274.324219 309.464844 274.75 310.347656 C 275.175781 311.230469 275.554688 312.132812 275.894531 313.050781 C 276.230469 313.972656 276.519531 314.90625 276.765625 315.855469 C 277.011719 316.804688 277.207031 317.761719 277.359375 318.730469 C 277.507812 319.699219 277.613281 320.671875 277.667969 321.652344 C 277.722656 322.628906 277.730469 323.609375 277.6875 324.585938 C 277.648438 325.566406 277.558594 326.539062 277.421875 327.511719 C 277.285156 328.480469 277.101562 329.441406 276.871094 330.394531 C 276.636719 331.347656 276.359375 332.285156 276.039062 333.210938 C 275.714844 334.136719 275.347656 335.042969 274.933594 335.929688 C 274.519531 336.820312 274.066406 337.6875 273.566406 338.53125 C 273.070312 339.375 272.53125 340.191406 271.953125 340.984375 C 271.375 341.777344 270.761719 342.535156 270.109375 343.265625 C 269.453125 343.996094 268.769531 344.695312 268.046875 345.359375 C 267.324219 346.023438 266.574219 346.648438 265.789062 347.238281 C 265.007812 347.828125 264.195312 348.375 263.359375 348.886719 C 262.523438 349.394531 261.664062 349.863281 260.78125 350.289062 C 259.898438 350.714844 258.996094 351.09375 258.074219 351.433594 C 257.15625 351.769531 256.222656 352.058594 255.273438 352.304688 C 184.4375 370.566406 147.375 399.328125 147.375 418.308594 C 147.375 451.960938 252.96875 502.8125 412.109375 502.8125 C 433.046875 502.8125 447.839844 501.707031 467.925781 500.003906 C 468.902344 499.921875 469.882812 499.886719 470.859375 499.902344 C 471.839844 499.914062 472.816406 499.976562 473.789062 500.089844 C 474.761719 500.199219 475.730469 500.355469 476.6875 500.5625 C 477.644531 500.765625 478.589844 501.019531 479.523438 501.316406 C 480.457031 501.613281 481.371094 501.957031 482.273438 502.34375 C 483.171875 502.734375 484.050781 503.164062 484.90625 503.636719 C 485.765625 504.113281 486.597656 504.628906 487.402344 505.183594 C 488.210938 505.738281 488.988281 506.332031 489.734375 506.964844 C 490.484375 507.597656 491.199219 508.265625 491.882812 508.96875 C 492.5625 509.671875 493.210938 510.40625 493.820312 511.171875 C 494.433594 511.9375 495.003906 512.730469 495.535156 513.554688 C 496.070312 514.375 496.558594 515.222656 497.007812 516.09375 C 497.457031 516.960938 497.863281 517.851562 498.226562 518.761719 C 498.589844 519.671875 498.90625 520.597656 499.175781 521.539062 C 499.445312 522.480469 499.671875 523.433594 499.847656 524.398438 C 500.027344 525.359375 500.15625 526.332031 500.238281 527.308594 C 500.320312 528.28125 500.355469 529.261719 500.339844 530.242188 C 500.328125 531.21875 500.265625 532.195312 500.15625 533.167969 C 500.046875 534.144531 499.890625 535.109375 499.683594 536.066406 C 499.480469 537.023438 499.230469 537.972656 498.929688 538.902344 C 498.632812 539.835938 498.292969 540.753906 497.902344 541.652344 C 497.515625 542.554688 497.085938 543.433594 496.613281 544.289062 C 496.136719 545.148438 495.625 545.980469 495.070312 546.785156 C 494.511719 547.59375 493.917969 548.371094 493.289062 549.121094 C 492.65625 549.867188 491.988281 550.582031 491.285156 551.265625 C 490.585938 551.949219 489.851562 552.597656 489.085938 553.207031 C 488.320312 553.820312 487.523438 554.390625 486.703125 554.925781 C 485.882812 555.457031 485.035156 555.949219 484.164062 556.398438 C 483.296875 556.847656 482.40625 557.253906 481.496094 557.617188 C 480.585938 557.980469 479.660156 558.296875 478.71875 558.570312 C 477.777344 558.839844 476.824219 559.066406 475.863281 559.242188 C 474.898438 559.421875 473.929688 559.550781 472.953125 559.632812 C 452.011719 561.398438 435.382812 562.640625 412.109375 562.640625 Z M 412.109375 562.640625 " fill-opacity="1" fill-rule="nonzero"/><path fill="#f5f9ff" d="M 351.921875 559.648438 C 349.503906 559.652344 347.117188 559.363281 344.769531 558.789062 C 342.417969 558.210938 340.171875 557.363281 338.027344 556.242188 C 335.882812 555.121094 333.90625 553.757812 332.089844 552.15625 C 330.277344 550.554688 328.683594 548.761719 327.304688 546.773438 L 321.425781 538.335938 C 310.304688 522.90625 299.992188 506.953125 290.496094 490.472656 C 209.296875 345.875 170.167969 173.765625 252.566406 124.917969 C 298.929688 96.769531 366.714844 123.121094 438.164062 197.308594 C 438.84375 198.015625 439.484375 198.75 440.09375 199.519531 C 440.699219 200.289062 441.265625 201.085938 441.796875 201.910156 C 442.324219 202.734375 442.8125 203.582031 443.257812 204.453125 C 443.703125 205.328125 444.101562 206.21875 444.460938 207.128906 C 444.816406 208.042969 445.128906 208.96875 445.398438 209.910156 C 445.664062 210.855469 445.882812 211.808594 446.054688 212.769531 C 446.230469 213.734375 446.355469 214.703125 446.433594 215.679688 C 446.511719 216.65625 446.539062 217.636719 446.523438 218.613281 C 446.503906 219.59375 446.4375 220.570312 446.324219 221.542969 C 446.210938 222.515625 446.046875 223.480469 445.839844 224.4375 C 445.628906 225.394531 445.375 226.335938 445.074219 227.269531 C 444.769531 228.199219 444.425781 229.117188 444.03125 230.011719 C 443.640625 230.910156 443.207031 231.789062 442.730469 232.640625 C 442.25 233.496094 441.734375 234.328125 441.175781 235.128906 C 440.617188 235.933594 440.019531 236.710938 439.382812 237.457031 C 438.75 238.199219 438.078125 238.914062 437.371094 239.59375 C 436.667969 240.273438 435.929688 240.917969 435.164062 241.523438 C 434.394531 242.128906 433.597656 242.699219 432.773438 243.226562 C 431.949219 243.757812 431.101562 244.246094 430.230469 244.691406 C 429.359375 245.136719 428.464844 245.539062 427.554688 245.894531 C 426.644531 246.253906 425.714844 246.566406 424.773438 246.835938 C 423.832031 247.101562 422.878906 247.320312 421.914062 247.496094 C 420.953125 247.667969 419.980469 247.796875 419.003906 247.875 C 418.027344 247.953125 417.050781 247.980469 416.070312 247.964844 C 415.09375 247.945312 414.117188 247.882812 413.144531 247.765625 C 412.171875 247.652344 411.207031 247.492188 410.25 247.285156 C 409.292969 247.078125 408.347656 246.820312 407.417969 246.519531 C 406.484375 246.21875 405.570312 245.875 404.671875 245.480469 C 403.773438 245.089844 402.898438 244.65625 402.042969 244.179688 C 401.1875 243.703125 400.355469 243.1875 399.550781 242.628906 C 398.746094 242.070312 397.972656 241.472656 397.226562 240.835938 C 396.480469 240.203125 395.769531 239.53125 395.085938 238.828125 C 343.054688 184.804688 299.53125 166.421875 283.347656 176.21875 C 252.414062 194.601562 260.359375 314.628906 342.679688 461.25 C 351.210938 475.996094 360.476562 490.269531 370.46875 504.070312 L 376.453125 512.683594 C 377.226562 513.800781 377.921875 514.964844 378.535156 516.175781 C 379.152344 517.386719 379.683594 518.632812 380.128906 519.917969 C 380.574219 521.199219 380.933594 522.507812 381.199219 523.839844 C 381.46875 525.171875 381.644531 526.515625 381.730469 527.871094 C 381.8125 529.226562 381.804688 530.582031 381.707031 531.9375 C 381.605469 533.292969 381.414062 534.636719 381.132812 535.964844 C 380.847656 537.292969 380.476562 538.597656 380.015625 539.875 C 379.554688 541.152344 379.011719 542.394531 378.382812 543.597656 C 377.75 544.800781 377.042969 545.957031 376.257812 547.066406 C 375.46875 548.171875 374.609375 549.222656 373.679688 550.210938 C 372.75 551.203125 371.757812 552.125 370.703125 552.980469 C 369.648438 553.835938 368.539062 554.613281 367.375 555.320312 C 366.214844 556.023438 365.011719 556.644531 363.761719 557.183594 C 362.515625 557.726562 361.238281 558.175781 359.929688 558.542969 C 358.621094 558.910156 357.296875 559.183594 355.949219 559.371094 C 354.605469 559.554688 353.25 559.648438 351.894531 559.648438 Z M 351.921875 559.648438 " fill-opacity="1" fill-rule="nonzero"/><path fill="#f5f9ff" d="M 291.421875 712.207031 C 284.347656 712.296875 277.394531 711.421875 270.5625 709.582031 C 263.730469 707.742188 257.277344 705.007812 251.203125 701.378906 C 206.109375 674.039062 195.386719 604.953125 221.007812 506.941406 C 221.238281 505.980469 221.519531 505.03125 221.847656 504.09375 C 222.175781 503.160156 222.546875 502.242188 222.964844 501.34375 C 223.382812 500.445312 223.84375 499.570312 224.351562 498.71875 C 224.855469 497.867188 225.402344 497.042969 225.988281 496.242188 C 226.578125 495.445312 227.203125 494.679688 227.867188 493.941406 C 228.527344 493.207031 229.226562 492.507812 229.960938 491.839844 C 230.695312 491.171875 231.457031 490.546875 232.253906 489.953125 C 233.050781 489.363281 233.871094 488.816406 234.722656 488.304688 C 235.574219 487.796875 236.445312 487.332031 237.34375 486.910156 C 238.238281 486.488281 239.152344 486.113281 240.085938 485.78125 C 241.023438 485.449219 241.96875 485.164062 242.929688 484.929688 C 243.894531 484.691406 244.863281 484.503906 245.847656 484.363281 C 246.828125 484.222656 247.8125 484.132812 248.800781 484.089844 C 249.792969 484.046875 250.78125 484.054688 251.769531 484.109375 C 252.757812 484.164062 253.742188 484.269531 254.722656 484.421875 C 255.699219 484.578125 256.667969 484.777344 257.628906 485.027344 C 258.585938 485.277344 259.53125 485.574219 260.460938 485.917969 C 261.390625 486.261719 262.300781 486.652344 263.191406 487.085938 C 264.082031 487.519531 264.949219 487.996094 265.789062 488.519531 C 266.632812 489.039062 267.449219 489.597656 268.238281 490.199219 C 269.023438 490.800781 269.78125 491.441406 270.503906 492.117188 C 271.226562 492.792969 271.917969 493.503906 272.570312 494.25 C 273.222656 494.992188 273.835938 495.769531 274.414062 496.574219 C 274.988281 497.382812 275.523438 498.214844 276.019531 499.074219 C 276.511719 499.933594 276.960938 500.8125 277.367188 501.71875 C 277.773438 502.621094 278.132812 503.542969 278.449219 504.480469 C 278.761719 505.421875 279.03125 506.375 279.25 507.339844 C 279.46875 508.304688 279.640625 509.28125 279.765625 510.265625 C 279.886719 511.246094 279.960938 512.234375 279.984375 513.222656 C 280.011719 514.214844 279.984375 515.203125 279.914062 516.191406 C 279.839844 517.179688 279.71875 518.164062 279.546875 519.136719 C 279.375 520.113281 279.15625 521.078125 278.890625 522.035156 C 259.234375 597.324219 266.398438 640.699219 282.210938 650.285156 C 283.796875 650.992188 285.4375 651.539062 287.128906 651.921875 C 288.824219 652.304688 290.539062 652.519531 292.273438 652.566406 C 294.011719 652.613281 295.734375 652.488281 297.445312 652.195312 C 299.15625 651.902344 300.824219 651.445312 302.445312 650.824219 C 343.636719 639.652344 417.089844 574.605469 481.058594 457.945312 C 491.363281 438.785156 500.742188 419.59375 508.863281 401.109375 C 509.226562 400.167969 509.636719 399.25 510.089844 398.351562 C 510.546875 397.457031 511.046875 396.582031 511.589844 395.734375 C 512.132812 394.890625 512.71875 394.070312 513.34375 393.28125 C 513.972656 392.496094 514.636719 391.738281 515.335938 391.019531 C 516.039062 390.296875 516.777344 389.613281 517.546875 388.96875 C 518.320312 388.320312 519.121094 387.714844 519.953125 387.148438 C 520.789062 386.582031 521.644531 386.0625 522.53125 385.582031 C 523.417969 385.101562 524.324219 384.667969 525.253906 384.28125 C 526.183594 383.894531 527.128906 383.554688 528.09375 383.261719 C 529.054688 382.972656 530.03125 382.730469 531.019531 382.535156 C 532.007812 382.34375 533.003906 382.199219 534.003906 382.105469 C 535.007812 382.011719 536.011719 381.972656 537.019531 381.980469 C 538.023438 381.988281 539.027344 382.046875 540.027344 382.15625 C 541.03125 382.265625 542.023438 382.425781 543.007812 382.636719 C 543.992188 382.847656 544.960938 383.105469 545.921875 383.414062 C 546.878906 383.722656 547.820312 384.078125 548.742188 384.480469 C 549.664062 384.882812 550.5625 385.332031 551.441406 385.824219 C 552.320312 386.320312 553.167969 386.855469 553.992188 387.4375 C 554.816406 388.015625 555.605469 388.636719 556.367188 389.296875 C 557.128906 389.953125 557.851562 390.652344 558.542969 391.382812 C 559.234375 392.117188 559.882812 392.882812 560.496094 393.679688 C 561.109375 394.480469 561.679688 395.308594 562.210938 396.164062 C 562.738281 397.019531 563.222656 397.898438 563.664062 398.804688 C 564.105469 399.710938 564.5 400.636719 564.84375 401.582031 C 565.191406 402.527344 565.492188 403.484375 565.742188 404.460938 C 565.992188 405.4375 566.191406 406.421875 566.34375 407.417969 C 566.492188 408.410156 566.59375 409.414062 566.640625 410.417969 C 566.691406 411.421875 566.691406 412.429688 566.640625 413.433594 C 566.585938 414.4375 566.484375 415.4375 566.332031 416.433594 C 566.179688 417.429688 565.976562 418.414062 565.722656 419.386719 C 565.472656 420.363281 565.171875 421.320312 564.820312 422.265625 C 564.472656 423.210938 564.078125 424.132812 563.636719 425.039062 C 554.898438 444.960938 544.804688 465.585938 533.648438 486.363281 C 469.511719 603.382812 384.902344 690.476562 317.972656 708.453125 C 309.289062 710.878906 300.4375 712.128906 291.421875 712.207031 Z M 291.421875 712.207031 " fill-opacity="1" fill-rule="nonzero"/><path fill="#f5f9ff" d="M 540.109375 712.207031 C 498.410156 712.207031 447.71875 683.550781 395.027344 628.929688 C 394.347656 628.222656 393.703125 627.488281 393.097656 626.71875 C 392.488281 625.949219 391.921875 625.152344 391.390625 624.328125 C 390.863281 623.503906 390.375 622.65625 389.929688 621.78125 C 389.484375 620.910156 389.082031 620.019531 388.722656 619.105469 C 388.363281 618.195312 388.050781 617.265625 387.785156 616.324219 C 387.519531 615.382812 387.296875 614.429688 387.125 613.464844 C 386.949219 612.5 386.824219 611.53125 386.746094 610.554688 C 386.667969 609.578125 386.636719 608.597656 386.65625 607.617188 C 386.675781 606.640625 386.742188 605.664062 386.855469 604.691406 C 386.96875 603.71875 387.128906 602.75 387.339844 601.792969 C 387.546875 600.835938 387.800781 599.894531 388.105469 598.960938 C 388.40625 598.027344 388.753906 597.113281 389.144531 596.214844 C 389.535156 595.316406 389.96875 594.441406 390.449219 593.585938 C 390.925781 592.730469 391.445312 591.898438 392.003906 591.09375 C 392.5625 590.289062 393.160156 589.515625 393.792969 588.769531 C 394.429688 588.023438 395.101562 587.3125 395.804688 586.632812 C 396.511719 585.953125 397.25 585.308594 398.015625 584.699219 C 398.785156 584.09375 399.582031 583.523438 400.40625 582.996094 C 401.230469 582.464844 402.078125 581.976562 402.953125 581.53125 C 403.824219 581.085938 404.714844 580.683594 405.628906 580.324219 C 406.539062 579.96875 407.46875 579.65625 408.410156 579.386719 C 409.351562 579.121094 410.304688 578.902344 411.269531 578.726562 C 412.234375 578.554688 413.203125 578.429688 414.179688 578.351562 C 415.15625 578.273438 416.136719 578.242188 417.117188 578.261719 C 418.09375 578.277344 419.070312 578.34375 420.042969 578.457031 C 421.015625 578.570312 421.984375 578.734375 422.941406 578.941406 C 423.898438 579.152344 424.84375 579.40625 425.773438 579.707031 C 426.707031 580.007812 427.621094 580.355469 428.519531 580.746094 C 429.417969 581.136719 430.292969 581.574219 431.148438 582.050781 C 432.003906 582.527344 432.835938 583.046875 433.640625 583.605469 C 434.445312 584.164062 435.21875 584.761719 435.964844 585.398438 C 436.710938 586.035156 437.421875 586.703125 438.101562 587.410156 C 490.109375 641.359375 533.824219 659.722656 550.070312 649.914062 C 580.863281 631.574219 572.894531 511.503906 490.542969 364.957031 C 482.628906 351.019531 474.386719 339.113281 465.652344 326.488281 C 462.664062 322.136719 459.671875 317.753906 456.558594 313.238281 C 456.027344 312.425781 455.539062 311.589844 455.089844 310.730469 C 454.640625 309.871094 454.234375 308.992188 453.871094 308.09375 C 453.503906 307.195312 453.1875 306.28125 452.910156 305.351562 C 452.636719 304.421875 452.40625 303.480469 452.222656 302.527344 C 452.039062 301.574219 451.902344 300.617188 451.8125 299.652344 C 451.722656 298.6875 451.679688 297.71875 451.683594 296.75 C 451.6875 295.777344 451.738281 294.8125 451.835938 293.847656 C 451.933594 292.882812 452.078125 291.925781 452.269531 290.972656 C 452.460938 290.023438 452.695312 289.082031 452.980469 288.15625 C 453.261719 287.226562 453.589844 286.316406 453.960938 285.421875 C 454.332031 284.523438 454.746094 283.648438 455.199219 282.792969 C 455.65625 281.9375 456.152344 281.105469 456.691406 280.296875 C 457.226562 279.492188 457.800781 278.710938 458.414062 277.960938 C 459.027344 277.207031 459.675781 276.488281 460.359375 275.800781 C 461.042969 275.113281 461.757812 274.457031 462.503906 273.839844 C 463.25 273.21875 464.023438 272.640625 464.828125 272.09375 C 465.628906 271.550781 466.457031 271.046875 467.308594 270.585938 C 468.160156 270.121094 469.035156 269.703125 469.925781 269.324219 C 470.820312 268.945312 471.730469 268.609375 472.65625 268.320312 C 473.582031 268.03125 474.515625 267.789062 475.464844 267.589844 C 476.414062 267.390625 477.371094 267.238281 478.335938 267.132812 C 479.300781 267.027344 480.265625 266.96875 481.238281 266.957031 C 482.207031 266.945312 483.175781 266.980469 484.140625 267.0625 C 485.105469 267.144531 486.066406 267.273438 487.019531 267.449219 C 487.972656 267.625 488.917969 267.847656 489.847656 268.113281 C 490.78125 268.382812 491.699219 268.695312 492.597656 269.050781 C 493.5 269.40625 494.382812 269.808594 495.246094 270.25 C 496.109375 270.691406 496.949219 271.175781 497.765625 271.699219 C 498.582031 272.222656 499.367188 272.785156 500.128906 273.386719 C 500.890625 273.988281 501.621094 274.625 502.320312 275.296875 C 503.019531 275.96875 503.683594 276.671875 504.316406 277.410156 C 504.945312 278.144531 505.539062 278.910156 506.097656 279.703125 C 509.085938 284.042969 511.945312 288.261719 514.847656 292.449219 C 523.941406 305.59375 533.347656 319.175781 542.636719 335.539062 C 650.023438 526.640625 643.101562 664.136719 580.773438 701.257812 C 574.628906 704.917969 568.105469 707.679688 561.195312 709.539062 C 554.289062 711.398438 547.261719 712.289062 540.109375 712.207031 Z M 540.109375 712.207031 " fill-opacity="1" fill-rule="nonzero"/><path fill="#f5f9ff" d="M 585.875 532.726562 C 584.972656 532.730469 584.074219 532.691406 583.175781 532.613281 C 582.277344 532.53125 581.386719 532.414062 580.5 532.253906 C 579.613281 532.09375 578.734375 531.894531 577.867188 531.65625 C 576.996094 531.417969 576.140625 531.140625 575.296875 530.824219 C 574.453125 530.507812 573.625 530.152344 572.8125 529.761719 C 572 529.371094 571.207031 528.941406 570.433594 528.480469 C 569.660156 528.015625 568.910156 527.519531 568.183594 526.988281 C 567.453125 526.457031 566.75 525.894531 566.074219 525.300781 C 565.394531 524.707031 564.746094 524.082031 564.125 523.429688 C 563.503906 522.777344 562.914062 522.097656 562.351562 521.390625 C 561.792969 520.683594 561.265625 519.953125 560.773438 519.199219 C 560.28125 518.445312 559.820312 517.671875 559.398438 516.875 C 558.972656 516.082031 558.585938 515.269531 558.234375 514.4375 C 557.886719 513.605469 557.574219 512.761719 557.300781 511.902344 C 557.027344 511.046875 556.792969 510.175781 556.597656 509.296875 C 556.402344 508.417969 556.246094 507.53125 556.128906 506.636719 C 556.015625 505.742188 555.941406 504.84375 555.90625 503.945312 C 555.871094 503.042969 555.878906 502.144531 555.925781 501.242188 C 555.972656 500.34375 556.0625 499.445312 556.191406 498.554688 C 556.320312 497.664062 556.488281 496.777344 556.695312 495.902344 C 556.902344 495.023438 557.152344 494.160156 557.4375 493.304688 C 557.722656 492.449219 558.046875 491.609375 558.410156 490.785156 C 558.773438 489.960938 559.171875 489.152344 559.609375 488.363281 C 560.042969 487.574219 560.511719 486.804688 561.019531 486.058594 C 561.523438 485.3125 562.058594 484.589844 562.628906 483.890625 C 563.199219 483.195312 563.800781 482.523438 564.433594 481.878906 C 565.0625 481.234375 565.722656 480.621094 566.40625 480.039062 C 567.09375 479.453125 567.804688 478.902344 568.539062 478.378906 C 569.277344 477.859375 570.035156 477.375 570.816406 476.921875 C 571.59375 476.472656 572.394531 476.058594 573.210938 475.675781 C 574.03125 475.296875 574.863281 474.957031 575.710938 474.652344 C 576.558594 474.347656 577.421875 474.082031 578.292969 473.859375 C 648.886719 455.3125 685.816406 426.535156 685.816406 407.808594 C 685.816406 374.1875 580.28125 323.332031 421.230469 323.332031 C 399.050781 323.332031 384.4375 324.214844 365.265625 325.832031 C 364.289062 325.914062 363.308594 325.945312 362.332031 325.933594 C 361.351562 325.917969 360.375 325.855469 359.402344 325.746094 C 358.429688 325.636719 357.460938 325.480469 356.503906 325.273438 C 355.546875 325.070312 354.601562 324.816406 353.667969 324.519531 C 352.734375 324.222656 351.820312 323.878906 350.917969 323.492188 C 350.019531 323.105469 349.140625 322.671875 348.285156 322.199219 C 347.425781 321.726562 346.59375 321.210938 345.789062 320.65625 C 344.980469 320.097656 344.203125 319.503906 343.457031 318.871094 C 342.707031 318.242188 341.992188 317.574219 341.308594 316.871094 C 340.628906 316.167969 339.980469 315.433594 339.371094 314.667969 C 338.757812 313.902344 338.1875 313.109375 337.65625 312.285156 C 337.121094 311.464844 336.632812 310.617188 336.183594 309.746094 C 335.734375 308.878906 335.328125 307.988281 334.964844 307.078125 C 334.601562 306.167969 334.285156 305.242188 334.015625 304.300781 C 333.746094 303.359375 333.519531 302.40625 333.34375 301.445312 C 333.164062 300.480469 333.035156 299.511719 332.953125 298.535156 C 332.871094 297.558594 332.835938 296.582031 332.851562 295.601562 C 332.863281 294.621094 332.925781 293.644531 333.035156 292.671875 C 333.144531 291.699219 333.300781 290.734375 333.507812 289.773438 C 333.710938 288.816406 333.960938 287.871094 334.257812 286.9375 C 334.558594 286.003906 334.898438 285.089844 335.285156 284.1875 C 335.675781 283.289062 336.105469 282.410156 336.578125 281.554688 C 337.050781 280.695312 337.566406 279.863281 338.121094 279.058594 C 338.679688 278.25 339.273438 277.472656 339.902344 276.722656 C 340.535156 275.976562 341.203125 275.261719 341.90625 274.578125 C 342.605469 273.894531 343.339844 273.246094 344.105469 272.636719 C 344.871094 272.027344 345.667969 271.453125 346.488281 270.921875 C 347.308594 270.386719 348.15625 269.898438 349.027344 269.445312 C 349.894531 268.996094 350.785156 268.589844 351.695312 268.230469 C 352.605469 267.867188 353.53125 267.550781 354.472656 267.277344 C 355.414062 267.007812 356.367188 266.78125 357.328125 266.605469 C 358.292969 266.425781 359.261719 266.296875 360.238281 266.214844 C 380.550781 264.492188 397.046875 263.507812 421.230469 263.507812 C 634.214844 263.507812 745.644531 336.105469 745.644531 407.808594 C 745.644531 461.144531 690.183594 506.3125 593.519531 531.753906 C 591.011719 532.402344 588.464844 532.726562 585.875 532.726562 Z M 585.875 532.726562 " fill-opacity="1" fill-rule="nonzero"/><path fill="#f5f9ff" d="M 296.941406 442.988281 C 296.324219 442.988281 295.707031 442.96875 295.09375 442.929688 C 294.476562 442.890625 293.863281 442.832031 293.253906 442.757812 C 292.640625 442.679688 292.03125 442.585938 291.425781 442.472656 C 290.820312 442.359375 290.214844 442.226562 289.617188 442.074219 C 289.019531 441.921875 288.429688 441.753906 287.839844 441.566406 C 287.253906 441.378906 286.671875 441.171875 286.097656 440.949219 C 285.523438 440.722656 284.957031 440.484375 284.394531 440.222656 C 283.835938 439.964844 283.285156 439.691406 282.742188 439.398438 C 282.199219 439.105469 281.664062 438.792969 281.140625 438.46875 C 280.617188 438.140625 280.105469 437.800781 279.601562 437.441406 C 279.101562 437.085938 278.609375 436.710938 278.128906 436.324219 C 277.652344 435.9375 277.183594 435.535156 276.730469 435.117188 C 276.273438 434.699219 275.832031 434.269531 275.40625 433.824219 C 274.976562 433.378906 274.5625 432.921875 274.164062 432.453125 C 273.765625 431.984375 273.378906 431.503906 273.011719 431.007812 C 272.640625 430.515625 272.285156 430.011719 271.949219 429.496094 C 271.609375 428.980469 271.289062 428.453125 270.980469 427.917969 C 270.675781 427.382812 270.386719 426.839844 270.113281 426.285156 C 269.839844 425.730469 269.585938 425.171875 269.347656 424.601562 C 269.109375 424.03125 268.890625 423.457031 268.6875 422.875 C 268.488281 422.289062 268.304688 421.703125 268.136719 421.109375 C 267.972656 420.515625 267.824219 419.914062 267.695312 419.3125 C 267.566406 418.710938 267.457031 418.101562 267.367188 417.492188 C 267.273438 416.882812 267.203125 416.269531 267.148438 415.65625 C 267.097656 415.042969 267.0625 414.425781 267.046875 413.808594 C 267.03125 413.191406 267.035156 412.578125 267.058594 411.960938 C 267.082031 411.34375 267.125 410.730469 267.183594 410.113281 C 267.246094 409.5 267.324219 408.890625 267.425781 408.28125 C 267.523438 407.671875 267.640625 407.066406 267.777344 406.464844 C 267.914062 405.863281 268.066406 405.265625 268.242188 404.675781 C 268.414062 404.082031 268.605469 403.496094 268.816406 402.917969 C 269.023438 402.335938 269.25 401.765625 269.496094 401.199219 C 277.765625 382.007812 287.609375 361.890625 299.574219 339.695312 C 363.5 222.734375 448.035156 135.640625 514.949219 117.648438 C 517.710938 116.769531 520.511719 116.035156 523.347656 115.449219 C 526.183594 114.863281 529.042969 114.421875 531.925781 114.132812 C 534.808594 113.84375 537.699219 113.703125 540.59375 113.710938 C 543.492188 113.722656 546.382812 113.882812 549.261719 114.195312 C 552.140625 114.503906 555 114.964844 557.832031 115.570312 C 560.664062 116.179688 563.457031 116.933594 566.210938 117.832031 C 568.964844 118.730469 571.667969 119.769531 574.3125 120.949219 C 576.957031 122.128906 579.535156 123.441406 582.046875 124.886719 C 627.097656 152.421875 637.773438 221.464844 612.214844 319.324219 C 611.972656 320.28125 611.683594 321.21875 611.351562 322.144531 C 611.015625 323.074219 610.636719 323.980469 610.214844 324.867188 C 609.789062 325.757812 609.324219 326.621094 608.8125 327.464844 C 608.304688 328.308594 607.753906 329.125 607.164062 329.910156 C 606.574219 330.699219 605.949219 331.457031 605.285156 332.183594 C 604.617188 332.910156 603.921875 333.601562 603.1875 334.261719 C 602.453125 334.917969 601.691406 335.539062 600.894531 336.121094 C 600.101562 336.703125 599.28125 337.242188 598.433594 337.742188 C 597.585938 338.246094 596.714844 338.703125 595.824219 339.117188 C 594.929688 339.53125 594.019531 339.902344 593.089844 340.226562 C 592.160156 340.554688 591.21875 340.832031 590.261719 341.0625 C 589.304688 341.296875 588.335938 341.480469 587.363281 341.617188 C 586.386719 341.753906 585.40625 341.839844 584.421875 341.878906 C 583.441406 341.921875 582.457031 341.910156 581.472656 341.855469 C 580.492188 341.796875 579.511719 341.691406 578.539062 341.539062 C 577.566406 341.382812 576.605469 341.183594 575.652344 340.933594 C 574.699219 340.683594 573.761719 340.390625 572.839844 340.046875 C 571.914062 339.707031 571.011719 339.320312 570.125 338.890625 C 569.238281 338.460938 568.378906 337.984375 567.539062 337.46875 C 566.699219 336.953125 565.890625 336.398438 565.105469 335.800781 C 564.320312 335.207031 563.570312 334.574219 562.847656 333.902344 C 562.128906 333.230469 561.441406 332.527344 560.789062 331.789062 C 560.136719 331.050781 559.523438 330.285156 558.949219 329.484375 C 558.371094 328.6875 557.835938 327.859375 557.34375 327.007812 C 556.847656 326.15625 556.398438 325.285156 555.988281 324.386719 C 555.582031 323.492188 555.21875 322.578125 554.902344 321.644531 C 554.582031 320.714844 554.3125 319.769531 554.085938 318.808594 C 553.863281 317.851562 553.6875 316.882812 553.558594 315.90625 C 553.429688 314.929688 553.347656 313.953125 553.316406 312.96875 C 553.285156 311.984375 553.300781 311 553.367188 310.015625 C 553.429688 309.035156 553.542969 308.058594 553.707031 307.085938 C 553.867188 306.117188 554.074219 305.15625 554.332031 304.203125 C 573.777344 229.421875 566.296875 185.34375 550.90625 175.964844 C 549.304688 175.253906 547.644531 174.703125 545.933594 174.316406 C 544.222656 173.929688 542.492188 173.710938 540.738281 173.664062 C 538.984375 173.617188 537.242188 173.742188 535.511719 174.039062 C 533.78125 174.335938 532.097656 174.800781 530.460938 175.425781 C 489.316406 186.507812 415.921875 251.542969 352.148438 368.203125 C 341.09375 388.710938 332 407.300781 324.402344 424.890625 C 323.828125 426.226562 323.160156 427.511719 322.398438 428.75 C 321.636719 429.988281 320.789062 431.164062 319.855469 432.277344 C 318.921875 433.390625 317.914062 434.433594 316.828125 435.398438 C 315.746094 436.367188 314.597656 437.25 313.382812 438.050781 C 312.167969 438.851562 310.902344 439.558594 309.585938 440.171875 C 308.269531 440.789062 306.914062 441.304688 305.523438 441.722656 C 304.132812 442.140625 302.71875 442.457031 301.277344 442.667969 C 299.839844 442.878906 298.394531 442.984375 296.941406 442.988281 Z M 296.941406 442.988281 " fill-opacity="1" fill-rule="nonzero"/><path fill="#f5f9ff" d="M 416.296875 450.613281 C 415.078125 450.589844 413.863281 450.507812 412.652344 450.371094 C 411.445312 450.230469 410.242188 450.03125 409.050781 449.777344 C 407.859375 449.523438 406.683594 449.210938 405.523438 448.84375 C 404.363281 448.476562 403.222656 448.050781 402.101562 447.574219 C 400.980469 447.097656 399.882812 446.570312 398.8125 445.988281 C 397.742188 445.40625 396.703125 444.773438 395.695312 444.089844 C 394.683594 443.410156 393.710938 442.679688 392.769531 441.90625 C 391.832031 441.132812 390.929688 440.3125 390.066406 439.453125 C 389.207031 438.589844 388.386719 437.6875 387.613281 436.75 C 386.839844 435.808594 386.109375 434.835938 385.429688 433.824219 C 384.746094 432.816406 384.113281 431.777344 383.53125 430.707031 C 382.949219 429.636719 382.421875 428.539062 381.945312 427.417969 C 381.46875 426.296875 381.042969 425.15625 380.675781 423.996094 C 380.308594 422.835938 379.996094 421.660156 379.742188 420.46875 C 379.488281 419.277344 379.289062 418.074219 379.148438 416.867188 C 379.011719 415.65625 378.929688 414.441406 378.90625 413.222656 C 378.894531 412.058594 378.941406 410.898438 379.039062 409.738281 C 379.140625 408.578125 379.292969 407.425781 379.5 406.28125 C 379.707031 405.132812 379.96875 404 380.28125 402.878906 C 380.59375 401.757812 380.960938 400.65625 381.375 399.566406 C 381.792969 398.480469 382.257812 397.414062 382.773438 396.371094 C 383.289062 395.328125 383.851562 394.3125 384.460938 393.320312 C 385.074219 392.328125 385.730469 391.367188 386.429688 390.4375 C 387.128906 389.507812 387.871094 388.613281 388.65625 387.753906 C 389.441406 386.894531 390.261719 386.070312 391.125 385.289062 C 391.984375 384.503906 392.878906 383.761719 393.808594 383.0625 C 394.738281 382.363281 395.699219 381.707031 396.691406 381.097656 C 397.683594 380.488281 398.699219 379.925781 399.742188 379.410156 C 400.789062 378.894531 401.851562 378.429688 402.941406 378.011719 C 404.027344 377.597656 405.132812 377.234375 406.253906 376.917969 C 407.375 376.605469 408.507812 376.347656 409.652344 376.140625 C 410.796875 375.933594 411.949219 375.78125 413.109375 375.683594 L 413.351562 375.683594 C 415.867188 375.503906 418.378906 375.585938 420.882812 375.921875 C 423.382812 376.257812 425.824219 376.847656 428.207031 377.683594 C 430.589844 378.519531 432.863281 379.589844 435.023438 380.894531 C 437.1875 382.195312 439.195312 383.703125 441.050781 385.417969 C 445.394531 389.429688 448.617188 394.203125 450.710938 399.730469 C 453 404.066406 454.140625 408.683594 454.136719 413.582031 C 454.121094 416.742188 453.621094 419.820312 452.640625 422.824219 C 452.367188 423.8125 452.054688 424.785156 451.699219 425.746094 C 451.347656 426.707031 450.957031 427.652344 450.527344 428.582031 C 450.097656 429.511719 449.632812 430.421875 449.128906 431.3125 C 448.628906 432.203125 448.089844 433.074219 447.515625 433.921875 C 446.941406 434.769531 446.335938 435.59375 445.695312 436.394531 C 445.054688 437.191406 444.382812 437.964844 443.683594 438.707031 C 442.980469 439.453125 442.25 440.167969 441.488281 440.851562 C 440.726562 441.539062 439.941406 442.191406 439.128906 442.8125 C 438.316406 443.4375 437.476562 444.023438 436.617188 444.578125 C 435.757812 445.132812 434.875 445.648438 433.972656 446.132812 C 433.070312 446.617188 432.148438 447.0625 431.210938 447.46875 C 430.269531 447.878906 429.316406 448.246094 428.347656 448.578125 C 427.378906 448.910156 426.398438 449.199219 425.40625 449.453125 C 424.414062 449.703125 423.414062 449.914062 422.40625 450.085938 C 421.394531 450.253906 420.382812 450.386719 419.363281 450.472656 C 418.339844 450.5625 417.320312 450.609375 416.296875 450.613281 Z M 416.296875 450.613281 " fill-opacity="1" fill-rule="nonzero"/></svg>