<svg xmlns="http://www.w3.org/2000/svg" xmlns:xlink="http://www.w3.org/1999/xlink" width="1081" zoomAndPan="magnify" viewBox="0 0 810.75 809.999993" height="1080" preserveAspectRatio="xMidYMid meet" version="1.0"><defs><g/><clipPath id="e2f1f43f7e"><path d="M 0 0.125 L 810.5 0.125 L 810.5 809.875 L 0 809.875 Z M 0 0.125 " clip-rule="nonzero"/></clipPath><clipPath id="69e8c391f1"><path d="M 0 0.125 L 810.5 0.125 L 810.5 809.875 L 0 809.875 Z M 0 0.125 " clip-rule="nonzero"/></clipPath><clipPath id="1c4d36a683"><rect x="0" width="811" y="0" height="810"/></clipPath><clipPath id="fc0118fdfc"><rect x="0" width="627" y="0" height="626"/></clipPath></defs><g clip-path="url(#e2f1f43f7e)"><path fill="#ffffff" d="M 0 0.125 L 810.5 0.125 L 810.5 809.875 L 0 809.875 Z M 0 0.125 " fill-opacity="1" fill-rule="nonzero"/><path fill="#ffffff" d="M 0 0.125 L 810.5 0.125 L 810.5 809.875 L 0 809.875 Z M 0 0.125 " fill-opacity="1" fill-rule="nonzero"/><g transform="matrix(1, 0, 0, 1, 0, 0.00000000000007494)"><g clip-path="url(#1c4d36a683)"><g clip-path="url(#69e8c391f1)"><rect x="-178.365" width="1167.48" fill="#535bf2" height="1166.39999" y="-178.199998" fill-opacity="1"/></g></g></g></g><g transform="matrix(1, 0, 0, 1, 92, 92)"><g clip-path="url(#fc0118fdfc)"><g fill="#f5f9ff" fill-opacity="1"><g transform="translate(1.012338, 396.217613)"><g><path d="M 166.890625 -64.671875 C 166.890625 -43.984375 159.429688 -27.488281 144.515625 -15.1875 C 129.597656 -2.882812 108.425781 3.265625 81 3.265625 C 56.394531 3.265625 34.398438 -1.414062 15.015625 -10.78125 L 15.015625 -56.828125 C 26.117188 -52.035156 37.601562 -47.625 49.46875 -43.59375 C 61.34375 -39.570312 73.160156 -37.5625 84.921875 -37.5625 C 97.109375 -37.5625 105.757812 -39.898438 110.875 -44.578125 C 115.988281 -49.265625 118.546875 -55.195312 118.546875 -62.375 C 118.546875 -68.257812 116.53125 -73.269531 112.5 -77.40625 C 108.476562 -81.539062 103.09375 -85.40625 96.34375 -89 C 89.59375 -92.59375 81.863281 -96.457031 73.15625 -100.59375 C 67.707031 -103.207031 61.828125 -106.304688 55.515625 -109.890625 C 49.203125 -113.484375 43.160156 -117.945312 37.390625 -123.28125 C 31.617188 -128.625 26.882812 -135.101562 23.1875 -142.71875 C 19.488281 -150.34375 17.640625 -159.488281 17.640625 -170.15625 C 17.640625 -191.0625 24.710938 -207.335938 38.859375 -218.984375 C 53.015625 -230.628906 72.285156 -236.453125 96.671875 -236.453125 C 108.867188 -236.453125 120.410156 -235.035156 131.296875 -232.203125 C 142.179688 -229.378906 153.71875 -225.351562 165.90625 -220.125 L 149.90625 -181.59375 C 139.238281 -185.945312 129.65625 -189.316406 121.15625 -191.703125 C 112.664062 -194.097656 103.957031 -195.296875 95.03125 -195.296875 C 85.675781 -195.296875 78.492188 -193.117188 73.484375 -188.765625 C 68.472656 -184.410156 65.96875 -178.75 65.96875 -171.78125 C 65.96875 -163.507812 69.671875 -156.976562 77.078125 -152.1875 C 84.484375 -147.394531 95.476562 -141.519531 110.0625 -134.5625 C 122.039062 -128.894531 132.21875 -123.015625 140.59375 -116.921875 C 148.976562 -110.828125 155.457031 -103.640625 160.03125 -95.359375 C 164.601562 -87.085938 166.890625 -76.859375 166.890625 -64.671875 Z M 166.890625 -64.671875 "/></g></g></g><g fill="#f5f9ff" fill-opacity="1"><g transform="translate(180.963459, 396.217613)"><g><path d="M 241.03125 -116.921875 C 241.03125 -90.796875 236.347656 -68.148438 226.984375 -48.984375 C 217.617188 -29.828125 203.140625 -15.894531 183.546875 -7.1875 L 239.71875 55.515625 L 176.359375 55.515625 L 133.578125 3.265625 L 129.984375 3.265625 C 104.722656 3.265625 83.875 -1.738281 67.4375 -11.75 C 51 -21.769531 38.804688 -35.816406 30.859375 -53.890625 C 22.910156 -71.960938 18.9375 -93.082031 18.9375 -117.25 C 18.9375 -141.414062 22.910156 -162.425781 30.859375 -180.28125 C 38.804688 -198.132812 51 -212.015625 67.4375 -221.921875 C 83.875 -231.828125 104.832031 -236.78125 130.3125 -236.78125 C 155.570312 -236.78125 176.363281 -231.828125 192.6875 -221.921875 C 209.019531 -212.015625 221.160156 -198.078125 229.109375 -180.109375 C 237.054688 -162.148438 241.03125 -141.085938 241.03125 -116.921875 Z M 70.875 -116.921875 C 70.875 -92.535156 75.550781 -73.320312 84.90625 -59.28125 C 94.269531 -45.238281 109.296875 -38.21875 129.984375 -38.21875 C 151.097656 -38.21875 166.226562 -45.238281 175.375 -59.28125 C 184.519531 -73.320312 189.09375 -92.535156 189.09375 -116.921875 C 189.09375 -141.304688 184.519531 -160.519531 175.375 -174.5625 C 166.226562 -188.601562 151.207031 -195.625 130.3125 -195.625 C 109.40625 -195.625 94.269531 -188.601562 84.90625 -174.5625 C 75.550781 -160.519531 70.875 -141.304688 70.875 -116.921875 Z M 70.875 -116.921875 "/></g></g></g><g fill="#f5f9ff" fill-opacity="1"><g transform="translate(440.929159, 396.217613)"><g><path d="M 29.390625 0 L 29.390625 -233.1875 L 78.703125 -233.1875 L 78.703125 -40.828125 L 173.421875 -40.828125 L 173.421875 0 Z M 29.390625 0 "/></g></g></g></g></g></svg>