<svg xmlns="http://www.w3.org/2000/svg" xmlns:xlink="http://www.w3.org/1999/xlink" width="1081" zoomAndPan="magnify" viewBox="0 0 810.75 809.999993" height="1080" preserveAspectRatio="xMidYMid meet" version="1.0"><defs><clipPath id="4d26ba9a3d"><path d="M 0 0.125 L 810.5 0.125 L 810.5 809.875 L 0 809.875 Z M 0 0.125 " clip-rule="nonzero"/></clipPath><clipPath id="8c9f8512ef"><path d="M 0 0.125 L 810.5 0.125 L 810.5 809.875 L 0 809.875 Z M 0 0.125 " clip-rule="nonzero"/></clipPath><clipPath id="803a920317"><rect x="0" width="811" y="0" height="810"/></clipPath><clipPath id="0b65786662"><path d="M 80.976562 31 L 738.523438 31 L 738.523438 779 L 80.976562 779 Z M 80.976562 31 " clip-rule="nonzero"/></clipPath></defs><g clip-path="url(#4d26ba9a3d)"><path fill="#ffffff" d="M 0 0.125 L 810.5 0.125 L 810.5 809.875 L 0 809.875 Z M 0 0.125 " fill-opacity="1" fill-rule="nonzero"/><path fill="#ffffff" d="M 0 0.125 L 810.5 0.125 L 810.5 809.875 L 0 809.875 Z M 0 0.125 " fill-opacity="1" fill-rule="nonzero"/><g transform="matrix(1, 0, 0, 1, 0, 0.00000000000007494)"><g clip-path="url(#803a920317)"><g clip-path="url(#8c9f8512ef)"><rect x="-178.365" width="1167.48" fill="#535bf2" height="1166.39999" y="-178.199998" fill-opacity="1"/></g></g></g></g><g clip-path="url(#0b65786662)"><path fill="#535bf2" d="M 140.691406 703.617188 L 80.789062 31.804688 L 738.953125 31.804688 L 679.007812 703.523438 L 409.453125 778.214844 Z M 140.691406 703.617188 " fill-opacity="1" fill-rule="nonzero"/></g><path fill="#535bf2" d="M 627.667969 660.746094 L 678.914062 86.738281 L 409.871094 86.738281 L 409.871094 721.136719 Z M 627.667969 660.746094 " fill-opacity="1" fill-rule="nonzero"/><path fill="#ffffff" d="M 409.589844 169.125 L 203.25 169.125 L 225.480469 418.292969 L 409.871094 418.292969 L 409.871094 335.90625 L 300.847656 335.90625 L 293.3125 251.535156 L 409.871094 251.535156 L 409.871094 169.125 Z M 409.871094 549.621094 L 409.523438 549.714844 L 317.757812 524.941406 L 311.925781 459.230469 L 229.164062 459.230469 L 240.710938 588.597656 L 409.5 635.25 L 409.871094 635.132812 Z M 409.871094 549.621094 " fill-opacity="1" fill-rule="nonzero"/><path fill="#ffffff" d="M 409.589844 418.292969 L 511.058594 418.292969 L 501.730469 525.128906 L 409.824219 549.921875 L 409.824219 635.644531 L 578.75 588.832031 L 601.378906 335.859375 L 409.871094 335.859375 Z M 614.019531 191.238281 L 615.980469 169.125 L 409.546875 169.125 L 409.546875 251.511719 L 608.5625 251.511719 L 610.195312 232.992188 Z M 614.019531 191.238281 " fill-opacity="1" fill-rule="nonzero"/></svg>